<svg width="314" height="113" viewBox="0 0 314 113" fill="none" xmlns="http://www.w3.org/2000/svg">
<path d="M91.6042 103.331H52.6458V57.0397C52.6458 54.5397 52.0208 52.6647 50.7708 51.4147C49.5208 50.1647 48.0521 49.5397 46.375 49.5397C44.6927 49.5397 43.2292 50.1439 41.9792 51.3522C40.7292 52.5501 40.1042 54.3887 40.1042 56.873V103.331H0V55.248C0 46.6647 1.33333 39.446 4 33.5814C6.66667 27.7064 10.25 22.9772 14.75 19.3939C19.2604 15.8105 24.2604 13.2064 29.75 11.5814C35.2344 9.94596 40.8021 9.12305 46.4583 9.12305C51.0104 9.12305 55.5208 9.91471 59.9792 11.498C64.4375 13.071 68.5104 15.7012 72.2083 19.3939C75.3594 15.9251 79.2396 13.373 83.8542 11.748C88.4792 10.1126 93.0104 9.23763 97.4583 9.12305C103.219 9.12305 108.875 9.97201 114.417 11.6647C119.958 13.347 124.979 16.0085 129.479 19.6439C133.99 23.2845 137.604 28.0397 140.312 33.9147C143.031 39.7793 144.396 46.8887 144.396 55.248V103.331H104.312V56.873C104.312 54.3887 103.656 52.5501 102.354 51.3522C101.047 50.1439 99.5833 49.5397 97.9583 49.5397C96.3333 49.5397 94.8646 50.1647 93.5625 51.4147C92.2552 52.6647 91.6042 54.5397 91.6042 57.0397V103.331Z" fill="#F7339A"/>
<path d="M146.201 79.3854C140.768 79.3854 135.638 78.3542 130.81 76.3021C126.008 74.2552 121.784 71.4062 118.133 67.7604C114.482 64.1094 111.638 59.8854 109.591 55.0833C107.534 50.2552 106.508 45.125 106.508 39.6927C106.508 34.1771 107.539 29.026 109.596 24.2292C111.643 19.474 114.487 15.276 118.133 11.6302C121.784 7.97917 126.008 5.13021 130.81 3.08854C135.638 1.03125 140.768 0 146.201 0C151.716 0 156.867 1.03125 161.664 3.09375C166.419 5.13542 170.617 7.97917 174.263 11.6302C177.909 15.276 180.758 19.474 182.799 24.2292C184.862 29.026 185.893 34.1771 185.893 39.6927C185.893 45.125 184.862 50.2552 182.805 55.0833C180.763 59.8854 177.914 64.1094 174.263 67.7604C170.617 71.4062 166.419 74.25 161.664 76.2917C156.867 78.3542 151.716 79.3854 146.201 79.3854ZM146.201 70.4844C150.492 70.4844 154.477 69.6979 158.148 68.1198C161.857 66.5208 165.133 64.3073 167.971 61.4635C170.81 58.6302 173.023 55.3385 174.617 51.5938C176.201 47.8802 176.992 43.9115 176.992 39.6927C176.992 35.401 176.201 31.4167 174.622 27.7448C173.029 24.0365 170.81 20.7604 167.971 17.9219C165.133 15.0781 161.857 12.8646 158.148 11.2708C154.477 9.69271 150.492 8.90104 146.201 8.90104C141.977 8.90104 138.013 9.69271 134.299 11.276C130.555 12.8698 127.263 15.0833 124.43 17.9219C121.586 20.7604 119.367 24.0365 117.773 27.7448C116.195 31.4167 115.409 35.401 115.409 39.6927C115.409 43.9115 116.201 47.8802 117.779 51.5938C119.372 55.3385 121.591 58.6302 124.43 61.4635C127.263 64.3021 130.555 66.5156 134.299 68.1094C138.013 69.6927 141.977 70.4844 146.201 70.4844ZM146.201 38.0938C145.768 38.0938 145.393 38.25 145.076 38.5677C144.758 38.8854 144.596 39.2604 144.596 39.6927C144.596 40.125 144.758 40.5 145.076 40.8177C145.393 41.1354 145.768 41.2969 146.201 41.2969C146.633 41.2969 147.008 41.1354 147.326 40.8177C147.643 40.5 147.799 40.125 147.799 39.6927C147.799 39.2604 147.643 38.8854 147.326 38.5677C147.008 38.25 146.633 38.0938 146.201 38.0938ZM146.201 29.1927C149.091 29.1927 151.56 30.2188 153.617 32.276C155.674 34.3281 156.701 36.8021 156.701 39.6927C156.701 42.5833 155.674 45.0573 153.617 47.1094C151.56 49.1667 149.091 50.1927 146.201 50.1927C143.31 50.1927 140.836 49.1667 138.779 47.1094C136.727 45.0573 135.695 42.5833 135.695 39.6927C135.695 36.8021 136.727 34.3281 138.779 32.276C140.836 30.2188 143.31 29.1927 146.201 29.1927Z" fill="#FFF9F9"/>
<path d="M146.195 74.9323C141.372 74.9323 136.825 74.0208 132.549 72.2031C128.284 70.3854 124.528 67.8594 121.278 64.6198C118.039 61.3698 115.513 57.6146 113.695 53.349C111.872 49.0729 110.966 44.5156 110.966 39.6823C110.966 34.7813 111.872 30.2188 113.695 25.9948C115.513 21.7604 118.039 18.026 121.278 14.7865C124.528 11.5365 128.284 9.00521 132.549 7.18229C136.825 5.36458 141.372 4.45312 146.195 4.45312C151.096 4.45312 155.664 5.36458 159.903 7.18229C164.138 9.00521 167.872 11.5365 171.112 14.7865C174.362 18.026 176.893 21.7604 178.716 25.9948C180.534 30.2188 181.445 34.7813 181.445 39.6823C181.445 44.5156 180.534 49.0729 178.716 53.349C176.893 57.6146 174.362 61.3698 171.112 64.6198C167.872 67.8594 164.138 70.3854 159.903 72.2031C155.664 74.0208 151.096 74.9323 146.195 74.9323ZM146.195 33.6406C144.539 33.6406 143.117 34.2396 141.924 35.4323C140.742 36.6146 140.153 38.0312 140.153 39.6823C140.153 41.349 140.742 42.7812 141.924 43.974C143.117 45.1562 144.539 45.7448 146.195 45.7448C147.862 45.7448 149.284 45.1562 150.466 43.974C151.659 42.7812 152.257 41.349 152.257 39.6823C152.257 38.0312 151.659 36.6146 150.466 35.4323C149.284 34.2396 147.862 33.6406 146.195 33.6406Z" fill="#F7339A"/>
<path d="M194.986 112.69C189.553 112.69 184.423 111.659 179.595 109.607C174.793 107.56 170.569 104.711 166.918 101.065C163.267 97.4141 160.423 93.1901 158.376 88.388C156.319 83.5599 155.293 78.4297 155.293 72.9974C155.293 67.4818 156.324 62.3307 158.382 57.5339C160.428 52.7786 163.272 48.5807 166.918 44.9349C170.569 41.2839 174.793 38.4349 179.595 36.3932C184.423 34.3359 189.553 33.3047 194.986 33.3047C200.501 33.3047 205.652 34.3359 210.449 36.3984C215.204 38.4401 219.402 41.2839 223.048 44.9349C226.694 48.5807 229.543 52.7786 231.585 57.5339C233.647 62.3307 234.678 67.4818 234.678 72.9974C234.678 78.4297 233.647 83.5599 231.59 88.388C229.548 93.1901 226.699 97.4141 223.048 101.065C219.402 104.711 215.204 107.555 210.449 109.596C205.652 111.659 200.501 112.69 194.986 112.69ZM194.986 103.789C199.277 103.789 203.262 103.003 206.934 101.424C210.642 99.8255 213.918 97.612 216.757 94.7682C219.595 91.9349 221.809 88.6432 223.402 84.8984C224.986 81.1849 225.777 77.2161 225.777 72.9974C225.777 68.7057 224.986 64.7214 223.408 61.0495C221.814 57.3411 219.595 54.0651 216.757 51.2266C213.918 48.3828 210.642 46.1693 206.934 44.5755C203.262 42.9974 199.277 42.2057 194.986 42.2057C190.762 42.2057 186.798 42.9974 183.085 44.5807C179.34 46.1745 176.048 48.388 173.215 51.2266C170.371 54.0651 168.152 57.3411 166.559 61.0495C164.98 64.7214 164.194 68.7057 164.194 72.9974C164.194 77.2161 164.986 81.1849 166.564 84.8984C168.158 88.6432 170.376 91.9349 173.215 94.7682C176.048 97.6068 179.34 99.8203 183.085 101.414C186.798 102.997 190.762 103.789 194.986 103.789ZM194.986 71.3984C194.553 71.3984 194.178 71.5547 193.861 71.8724C193.543 72.1901 193.382 72.5651 193.382 72.9974C193.382 73.4297 193.543 73.8047 193.861 74.1224C194.178 74.4401 194.553 74.6016 194.986 74.6016C195.418 74.6016 195.793 74.4401 196.111 74.1224C196.428 73.8047 196.585 73.4297 196.585 72.9974C196.585 72.5651 196.428 72.1901 196.111 71.8724C195.793 71.5547 195.418 71.3984 194.986 71.3984ZM194.986 62.4974C197.876 62.4974 200.345 63.5234 202.402 65.5807C204.46 67.6328 205.486 70.1068 205.486 72.9974C205.486 75.888 204.46 78.362 202.402 80.4141C200.345 82.4714 197.876 83.4974 194.986 83.4974C192.095 83.4974 189.621 82.4714 187.564 80.4141C185.512 78.362 184.48 75.888 184.48 72.9974C184.48 70.1068 185.512 67.6328 187.564 65.5807C189.621 63.5234 192.095 62.4974 194.986 62.4974Z" fill="#FFF9F9"/>
<path d="M194.98 108.237C190.157 108.237 185.61 107.326 181.334 105.508C177.069 103.69 173.313 101.164 170.063 97.9245C166.824 94.6745 164.298 90.9193 162.48 86.6536C160.657 82.3776 159.751 77.8203 159.751 72.987C159.751 68.0859 160.657 63.5234 162.48 59.2995C164.298 55.0651 166.824 51.3307 170.063 48.0911C173.313 44.8411 177.069 42.3099 181.334 40.487C185.61 38.6693 190.157 37.7578 194.98 37.7578C199.881 37.7578 204.449 38.6693 208.688 40.487C212.923 42.3099 216.657 44.8411 219.897 48.0911C223.147 51.3307 225.678 55.0651 227.501 59.2995C229.319 63.5234 230.23 68.0859 230.23 72.987C230.23 77.8203 229.319 82.3776 227.501 86.6536C225.678 90.9193 223.147 94.6745 219.897 97.9245C216.657 101.164 212.923 103.69 208.688 105.508C204.449 107.326 199.881 108.237 194.98 108.237ZM194.98 66.9453C193.324 66.9453 191.902 67.5443 190.709 68.737C189.527 69.9193 188.938 71.3359 188.938 72.987C188.938 74.6536 189.527 76.0859 190.709 77.2786C191.902 78.4609 193.324 79.0495 194.98 79.0495C196.647 79.0495 198.069 78.4609 199.251 77.2786C200.444 76.0859 201.043 74.6536 201.043 72.987C201.043 71.3359 200.444 69.9193 199.251 68.737C198.069 67.5443 196.647 66.9453 194.98 66.9453Z" fill="#F7339A"/>
<path d="M253.58 106.341H224.393V72.1742C224.393 66.3148 225.356 61.2106 227.288 56.8617C229.231 52.5023 231.84 48.8825 235.122 46.0075C238.413 43.1221 242.09 40.9658 246.163 39.5492C250.247 38.1221 254.419 37.4033 258.684 37.4033C262.96 37.4033 267.153 38.1221 271.268 39.5492C275.377 40.9658 279.049 43.1221 282.288 46.0075C285.538 48.8825 288.132 52.5023 290.08 56.8617C292.023 61.2106 292.997 66.3148 292.997 72.1742V106.341H263.788V72.1742C263.788 70.4242 263.273 69.0596 262.247 68.07C261.215 67.0856 260.028 66.5908 258.684 66.5908C257.419 66.5908 256.252 67.0856 255.184 68.07C254.111 69.0596 253.58 70.4242 253.58 72.1742V106.341Z" fill="#F7339A"/>
<path d="M228.879 27.4233C228.223 27.8556 227.504 28.2098 226.712 28.4858C225.931 28.7515 225.139 28.8921 224.337 28.9025C223.546 28.9025 222.759 28.7306 221.983 28.3817C221.192 28.0223 220.473 27.4233 219.817 26.59L222.483 24.8817C223.067 25.4129 223.65 25.7515 224.233 25.9025C224.817 26.0431 225.384 26.0431 225.942 25.9025C226.494 25.7515 227.009 25.5223 227.483 25.215C228.192 24.7723 228.681 24.2462 228.962 23.6317C229.254 23.0223 229.192 22.3817 228.775 21.715C228.468 21.2462 228.072 20.9806 227.587 20.9233C227.113 20.8556 226.577 20.9025 225.983 21.0692C225.384 21.2358 224.754 21.4546 224.087 21.715C223.447 21.9233 222.796 22.1421 222.129 22.3608C221.462 22.5692 220.811 22.689 220.171 22.715C219.535 22.7306 218.921 22.6004 218.337 22.3192C217.744 22.0275 217.212 21.5275 216.754 20.8192C216.186 19.9337 215.931 19.0587 215.983 18.1942C216.04 17.3348 216.332 16.5171 216.858 15.7358C217.389 14.9598 218.119 14.2723 219.046 13.6733C219.936 13.1056 220.874 12.7306 221.858 12.5483C222.827 12.3712 223.785 12.4233 224.733 12.715C225.676 13.0067 226.535 13.6004 227.317 14.4858L224.671 16.1733C224.046 15.564 223.348 15.2567 222.587 15.2567C221.837 15.2462 221.108 15.465 220.4 15.9233C219.764 16.3296 219.317 16.7983 219.067 17.34C218.817 17.8817 218.858 18.4181 219.192 18.9442C219.473 19.3608 219.832 19.6004 220.275 19.6525C220.723 19.7098 221.233 19.6525 221.817 19.4858C222.384 19.3192 222.983 19.1265 223.608 18.9025C224.244 18.6525 224.91 18.4337 225.608 18.2358C226.317 18.0275 227.009 17.9181 227.692 17.9025C228.369 17.8765 229.014 18.0171 229.629 18.3192C230.238 18.6108 230.796 19.1525 231.296 19.9442C232.129 21.2254 232.337 22.5379 231.921 23.8817C231.514 25.215 230.504 26.3973 228.879 27.4233Z" fill="#F7339A"/>
<path d="M245.348 20.7031L242.348 21.349L239.473 8.14062L234.618 9.20312L234.035 6.51562L246.743 3.76562L247.327 6.45312L242.473 7.49479L245.348 20.7031Z" fill="#F7339A"/>
<path d="M261.001 20.7643C259.459 20.5247 258.251 20.082 257.376 19.431C256.501 18.7956 255.902 17.9727 255.584 16.9727C255.277 15.9622 255.214 14.8477 255.397 13.6393L256.938 3.41016L260.022 3.86849L258.48 14.0977C258.381 14.7643 258.397 15.3789 258.522 15.931C258.657 16.4883 258.959 16.9466 259.418 17.306C259.886 17.6706 260.553 17.9102 261.418 18.0352C262.277 18.1602 262.98 18.1185 263.522 17.9102C264.063 17.7018 264.48 17.3581 264.772 16.8685C265.063 16.3841 265.256 15.806 265.355 15.1393L266.897 4.91016L269.938 5.36849L268.397 15.5977C268.214 16.806 267.834 17.8477 267.251 18.7227C266.678 19.582 265.876 20.1914 264.834 20.556C263.803 20.931 262.527 20.9987 261.001 20.7643Z" fill="#F7339A"/>
<path d="M276.757 25.7305L272.674 23.3138L280.924 9.29297L285.007 11.7096C287.393 13.1003 288.861 14.7721 289.403 16.7305C289.955 18.6784 289.57 20.7826 288.236 23.043C286.913 25.2773 285.262 26.6315 283.278 27.1055C281.304 27.5742 279.132 27.1159 276.757 25.7305ZM282.174 13.2305L276.715 22.5013L278.111 23.3346C279.054 23.8763 279.965 24.2096 280.84 24.3346C281.715 24.4701 282.549 24.319 283.34 23.8763C284.143 23.4284 284.887 22.6315 285.57 21.4805C286.205 20.3867 286.533 19.3867 286.549 18.4805C286.559 17.5638 286.304 16.7409 285.778 16.0013C285.262 15.2669 284.533 14.6211 283.59 14.0638L282.174 13.2305Z" fill="#F7339A"/>
<path d="M289.949 36.3291L287.886 34.0791L299.824 23.0166L301.886 25.2666L289.949 36.3291Z" fill="#F7339A"/>
<path d="M296.847 47.5379C296.29 46.3296 296.003 45.1681 295.993 44.0587C295.977 42.9598 296.186 41.9546 296.618 41.0379C297.061 40.1317 297.67 39.3244 298.451 38.6004C299.243 37.8817 300.144 37.2775 301.16 36.7879C302.186 36.3192 303.222 36.0119 304.264 35.8712C305.316 35.7358 306.337 35.7983 307.326 36.0587C308.311 36.3087 309.222 36.7983 310.056 37.5171C310.889 38.2254 311.582 39.1837 312.139 40.3921C312.707 41.6004 312.998 42.7515 313.014 43.8504C313.024 44.9442 312.816 45.9546 312.389 46.8712C311.957 47.7879 311.347 48.6056 310.556 49.3296C309.774 50.0483 308.873 50.6473 307.847 51.1212C306.832 51.6056 305.795 51.9181 304.743 52.0587C303.701 52.1942 302.681 52.1317 301.681 51.8712C300.691 51.6056 299.785 51.1212 298.951 50.4129C298.118 49.7046 297.415 48.7462 296.847 47.5379ZM299.347 46.3712C299.774 47.2879 300.352 47.9546 301.076 48.3712C301.811 48.7983 302.644 49.0015 303.576 48.9754C304.503 48.9442 305.477 48.689 306.493 48.2046C307.519 47.7306 308.337 47.1473 308.951 46.4546C309.561 45.7723 309.936 45.0171 310.076 44.1837C310.212 43.3504 310.066 42.4754 309.639 41.5587C309.222 40.6525 308.644 39.9858 307.91 39.5587C307.186 39.1421 306.358 38.9494 305.431 38.9754C304.514 38.991 303.54 39.2358 302.514 39.7046C301.498 40.189 300.681 40.7775 300.056 41.4754C299.441 42.1681 299.066 42.9337 298.931 43.7671C298.79 44.6004 298.931 45.465 299.347 46.3712Z" fill="#F7339A"/>
</svg>
